# xmcd CD database file
# Copyright (C) 1993-1996 Ti Kan
#
# Track frame offsets:
#  150
#  14188
#  32581
#  46933
#  67833
#  81810
#  97683
#  116736
#  130282
#  146537
#  163205
#  179062
#  195842
#  210808
#  226813
#  243898
#  262000
#  278151
#
# Disc length: 3913 seconds
#
# Revision: 1
# Processed by: cddbd v1.5.2PL0 Copyright (c) Steve Scherf et al.
# Submitted via: Advanced CD Ripper Pro 2.0
#
DISCID=f00f4712
DTITLE=EXTERMINADOR 1 - unknown
DYEAR=2006
DGENRE=other
TTITLE0=Track1
TTITLE1=Track2
TTITLE2=Track3
TTITLE3=Track4
TTITLE4=Track5
TTITLE5=Track6
TTITLE6=Track7
TTITLE7=Track8
TTITLE8=Track9
TTITLE9=Track10
TTITLE10=Track11
TTITLE11=Track12
TTITLE12=Track13
TTITLE13=Track14
TTITLE14=Track15
TTITLE15=Track16
TTITLE16=Track17
TTITLE17=Track18
EXTD=
EXTT0=
EXTT1=
EXTT2=
EXTT3=
EXTT4=
EXTT5=
EXTT6=
EXTT7=
EXTT8=
EXTT9=
EXTT10=
EXTT11=
EXTT12=
EXTT13=
EXTT14=
EXTT15=
EXTT16=
EXTT17=
PLAYORDER=
